PathFileType	4	(X/Y/Z)	C:\Users\Basilio\Documents\Thesis Gigler\squatting_fais\c3dfiles\075\SLS_front_pre2\markers_experimental.trc
DataRate	CameraRate	NumFrames	NumMarkers	Units	OrigDataRate	OrigDataStartFrame	OrigNumFrames
200.000000	200.000000	4	61	mm	200.000000	920	1473
Frame#	Time	FHD			LBHD			C7			T10			CLAV			LSHO			LUUPA			LMUPA			LDUPA			LLEP			LMEP			LRAD			LUL			LRFIN			RSHO			RUPA1			RMUPA			RDUPA			RLEP			RMEP			RRAD			RUL			RUFIN			RASI			USACR			LSACR			RSACR			LTHI1			LTHI2			LTHI3			LTHI4			LLFC			LMFC			LTIB1			LTIB2			LTIB3			LTIB4			LLMAL			LMMAL			LHEE			LMT1			LMT2			LMT5			RTHI			RTHI2			RTHI3			RTHI4			RLFC			RMFC			RTIB1			RTIB2			RTIB3			RTIB4			RLMAL			RMMAL			RHEE			RMT1			RMT2			RMT5			RBHD			LASI			
		X1	Y1	Z1	X2	Y2	Z2	X3	Y3	Z3	X4	Y4	Z4	X5	Y5	Z5	X6	Y6	Z6	X7	Y7	Z7	X8	Y8	Z8	X9	Y9	Z9	X10	Y10	Z10	X11	Y11	Z11	X12	Y12	Z12	X13	Y13	Z13	X14	Y14	Z14	X15	Y15	Z15	X16	Y16	Z16	X17	Y17	Z17	X18	Y18	Z18	X19	Y19	Z19	X20	Y20	Z20	X21	Y21	Z21	X22	Y22	Z22	X23	Y23	Z23	X24	Y24	Z24	X25	Y25	Z25	X26	Y26	Z26	X27	Y27	Z27	X28	Y28	Z28	X29	Y29	Z29	X30	Y30	Z30	X31	Y31	Z31	X32	Y32	Z32	X33	Y33	Z33	X34	Y34	Z34	X35	Y35	Z35	X36	Y36	Z36	X37	Y37	Z37	X38	Y38	Z38	X39	Y39	Z39	X40	Y40	Z40	X41	Y41	Z41	X42	Y42	Z42	X43	Y43	Z43	X44	Y44	Z44	X45	Y45	Z45	X46	Y46	Z46	X47	Y47	Z47	X48	Y48	Z48	X49	Y49	Z49	X50	Y50	Z50	X51	Y51	Z51	X52	Y52	Z52	X53	Y53	Z53	X54	Y54	Z54	X55	Y55	Z55	X56	Y56	Z56	X57	Y57	Z57	X58	Y58	Z58	X59	Y59	Z59	X60	Y60	Z60	X61	Y61	Z61	

921	4.600000000000001	-225.3145599365235	1306.313110351563	-757.8075561523439	-377.2426757812501	1205.71142578125	-838.8051757812502	-419.2120971679689	1117.824462890625	-785.2918701171877	-587.5419921875001	845.642517089844	-793.049987792969	-300.7752990722657	1014.935424804688	-772.795104980469	-298.2238769531251	1085.2373046875	-896.473571777344	-141.149398803711	1037.085327148438	-976.0878906250002	-120.0942535400391	1047.686767578125	-931.589050292969	-72.57659149169923	1029.802490234375	-964.2058105468752	5.96332597732544	1017.895751953125	-942.5772094726565	-14.01535797119141	940.507019042969	-914.0049438476565	nan	nan	nan	242.1318817138672	1019.283508300781	-836.5142211914065	242.0250854492188	1028.295043945313	-735.8262939453126	-324.4505920410157	1072.404663085938	-644.7805175781251	-195.3309020996094	1020.370727539063	-531.7085571289064	-161.583969116211	1033.657958984375	-565.0266723632814	-125.6222686767578	1012.300903320313	-521.3543090820314	-54.46422576904298	1007.71435546875	-525.9827270507814	-46.83809280395509	933.1123046875002	-541.1839599609376	171.5754852294922	1014.608642578125	-691.7500610351564	185.7522735595703	1038.644165039063	-617.3823242187501	244.9043273925782	1054.0732421875	-714.8468017578126	-482.8463745117189	653.4312744140626	-676.8452758789064	-631.8329467773439	715.9196777343751	-804.4036865234377	-640.4976196289064	685.5490112304689	-832.1216430664065	-643.0721435546876	683.7457275390626	-777.147399902344	-374.9940795898438	535.6356811523439	-1024.123291015625	-290.7368164062501	533.7672729492189	-1026.218017578125	-276.1217041015626	573.5368652343751	-1000.002807617188	-251.9625396728516	487.3702697753907	-1026.401733398438	-165.631103515625	426.1255493164064	-1020.381042480469	-128.7425689697266	443.0685119628907	-898.396179199219	-37.67880249023438	379.9194030761719	-992.035827636719	-55.88594436645509	312.7886657714844	-1042.200561523438	-22.39981651306153	332.7919921875001	-1021.881042480469	27.25096130371094	269.1880493164063	-993.251159667969	62.45559692382814	110.8269729614258	-1016.249633789063	74.77210998535158	141.515380859375	-933.1950683593752	25.85299110412598	61.24125289916994	-973.7239990234377	217.4475402832032	135.8132476806641	-925.8984375000002	227.4561462402344	135.7652587890625	-974.578552246094	207.7108459472657	93.21630859375001	-1021.935852050781	-429.9511718750001	506.8569641113282	-618.6024780273439	-365.1293945312501	520.1237182617189	-617.7893676757814	-356.7085266113282	551.7572631835939	-628.1711425781251	-303.0086669921876	464.1190185546876	-622.3126220703126	-190.1394958496094	389.0437011718751	-652.3226928710939	-164.8696746826172	417.6429748535157	-779.3066406250002	-185.2967224121094	275.7784729003907	-758.3015136718751	-265.7376098632813	218.4317169189454	-710.6692504882814	-239.4349822998047	207.6923980712891	-749.1602172851564	-272.9655761718751	185.502197265625	-792.281433105469	-390.7782592773439	103.9508743286133	-770.4604492187502	-350.9747619628907	134.288330078125	-847.9819946289065	-446.1614379882814	92.04640960693361	-836.0723876953127	-241.9765014648438	56.79403686523439	-822.653015136719	-246.7755126953126	56.15749740600587	-780.035339355469	-289.4977416992188	33.7829818725586	-733.4049072265626	-344.5947570800782	1234.844970703125	-682.5415039062501	-479.1942749023439	665.7175903320314	-923.617614746094	
922	4.605	-225.6730346679688	1307.663818359375	-758.2700805664064	-377.4713745117188	1206.772216796875	-839.1728515625002	-419.0460205078126	1118.898315429688	-785.3669433593752	-587.4602050781251	846.809753417969	-793.0794067382815	-300.8429260253907	1016.062072753906	-772.8684082031252	-298.3916931152344	1086.4912109375	-896.791442871094	-141.1151885986328	1038.23095703125	-976.0930786132815	-120.2007751464844	1048.892822265625	-931.7171020507815	-72.46374511718751	1030.811889648438	-964.132263183594	5.651926040649415	1019.061767578125	-942.7071533203127	-13.94481754302979	941.5484619140627	-913.6671142578127	nan	nan	nan	242.5847625732422	1021.114929199219	-836.3150024414065	242.8430480957032	1029.62841796875	-735.6380004882814	-324.6113281250001	1073.849609375	-644.9240112304689	-195.5036773681641	1022.059326171875	-531.7783203125001	-161.7922515869141	1035.28173828125	-565.1661987304689	-125.7509689331055	1013.972534179688	-521.3422241210939	-54.770809173584	1009.425964355469	-526.0216064453126	-46.94390869140626	934.7649536132815	-541.0877685546876	171.4494018554688	1016.147583007813	-691.6299438476564	185.5403747558594	1040.152709960938	-617.4182739257814	244.8316040039063	1055.7646484375	-714.9880981445314	-482.698699951172	654.4835205078126	-676.5709228515626	-631.7305297851564	717.0845947265626	-804.257263183594	-640.4008789062501	686.6031494140626	-832.0173950195315	-642.8606567382814	684.8120117187501	-777.049499511719	-374.9697570800782	536.3795776367189	-1023.887451171875	-290.6551208496094	534.3240356445314	-1026.058837890625	-276.2209777832032	574.1904296875001	-999.9017333984377	-253.2404479980469	488.245330810547	-1026.622680664063	-166.0672302246094	426.7484436035157	-1020.221984863281	-129.0238037109375	443.5752258300782	-898.2712402343752	-38.05282592773438	380.1978759765626	-991.8552246093752	-56.37849807739259	313.0420837402344	-1041.990966796875	-22.75786590576172	333.0347900390626	-1021.620056152344	26.86836433410645	269.3182373046876	-992.9915771484377	62.60072326660158	110.82861328125	-1015.716125488281	74.12252044677736	141.7028503417969	-932.9597778320315	25.12421989440919	61.51843261718751	-973.4924926757815	216.8959197998047	135.821044921875	-925.7011718750002	226.8174438476563	135.7777709960938	-974.3234863281252	206.9489135742188	93.19186401367189	-1021.637634277344	-429.9051208496095	507.7622375488282	-618.4858398437501	-365.0550537109376	520.8503417968751	-617.6049194335939	-356.6483154296876	552.5472412109376	-628.0695800781251	-303.2364807128907	464.6275329589845	-622.2557983398439	-190.4998016357422	389.2709960937501	-652.3994750976564	-164.594955444336	417.9593200683595	-779.4182739257815	-185.5372009277344	275.9352722167969	-758.4762573242189	-265.8191528320313	218.5910797119141	-710.5444946289064	-239.5591278076172	207.8027954101563	-749.1791381835939	-273.0813293457032	185.6772766113282	-792.297058105469	-390.8016052246095	103.9800262451172	-770.4876708984377	-351.0238037109376	134.3294830322266	-847.9658813476565	-446.1798706054689	92.0441131591797	-836.092468261719	-241.9892272949219	56.78388595581056	-822.6439208984377	-246.8014831542969	56.16362380981447	-780.0557861328127	-289.5215454101563	33.83140182495118	-733.3970336914064	-345.0707397460938	1236.376708984375	-682.5634155273439	-479.030731201172	666.8447265625001	-923.4827880859377	
923	4.61	-225.8346252441407	1309.019653320313	-758.7069091796876	-377.3374328613282	1207.785034179688	-839.4637451171877	-419.6159057617189	1120.224243164063	-785.8389892578127	-587.3430786132814	847.9155273437502	-793.0725097656252	-301.3986816406251	1017.647399902344	-773.1075439453127	-298.4481201171876	1087.627685546875	-896.8120727539065	-140.96435546875	1039.261596679688	-976.1783447265627	-120.3049621582032	1049.9482421875	-931.855895996094	-72.54662322998048	1031.832275390625	-964.1881103515627	5.568186759948731	1020.384704589844	-942.6889648437502	-14.07457542419434	942.804626464844	-913.8068847656252	nan	nan	nan	241.8811798095704	1022.275634765625	-836.4298095703127	241.7637939453126	1031.580810546875	-735.6674804687501	-324.9209289550782	1075.21044921875	-645.2322998046876	-195.7322845458985	1023.833312988281	-531.8007202148439	-162.113998413086	1036.985717773438	-565.1802368164064	-126.041374206543	1015.687316894531	-521.4266357421876	-54.83742904663087	1011.3173828125	-525.8795166015626	-47.03283309936524	936.5017700195315	-540.9424438476564	170.9100036621094	1018.529907226563	-691.8374633789064	185.4340209960938	1042.266479492188	-617.3019409179689	244.7132568359376	1057.48779296875	-715.0324096679689	-482.6093750000001	655.5736694335939	-676.4939575195314	-631.5477294921876	718.0712890625001	-804.0327758789065	-640.3887329101564	687.7730712890626	-831.9421386718752	-642.7098999023439	685.9791259765626	-776.825866699219	-375.0079956054688	537.0435791015626	-1023.6953125	-290.3030090332032	534.9548950195314	-1025.811645507813	-276.2631835937501	574.8704223632814	-999.6940917968752	-252.5090026855469	488.6780090332032	-1025.995239257813	-166.4727783203125	427.2287902832032	-1020.112731933594	-129.3166809082032	444.0497131347657	-898.247497558594	-38.42905044555665	380.5553283691407	-991.8039550781252	-56.86097335815431	313.2959899902344	-1041.66650390625	-23.09093284606934	333.3157958984376	-1021.455688476563	26.35692787170411	269.5018920898438	-992.7668457031252	61.78810501098634	111.0027923583985	-1015.42724609375	73.47460174560548	141.9356231689453	-932.703063964844	24.77392959594727	61.5554885864258	-972.806091308594	216.2811126708985	135.8963012695313	-925.5263671875002	226.3395233154297	135.5252685546875	-973.8833007812502	206.4489746093751	93.10710906982423	-1021.433349609375	-429.9158020019532	508.7404785156251	-618.2938842773439	-365.0724487304688	521.5335083007814	-617.5503540039064	-356.5565795898438	553.2575683593751	-627.9747924804689	-303.3453063964844	465.2294921875001	-622.2045898437501	-190.7870025634766	389.6185607910157	-652.4820556640626	-164.6468811035157	418.2903137207032	-779.5244140625002	-185.7208099365235	276.1904602050782	-758.4145507812501	-265.9789733886719	218.6398315429688	-710.6563110351564	-239.638900756836	207.8919982910157	-749.2225341796876	-271.5880737304688	185.2498474121094	-792.391540527344	-390.8036193847657	104.0040817260742	-770.5081176757815	-351.0862121582032	134.3179016113282	-848.0286254882815	-446.122772216797	92.02713775634767	-836.110534667969	-241.9749450683594	56.7555389404297	-822.6370239257815	-246.7986450195313	56.15827941894533	-780.0674438476565	-289.5173339843751	33.84066390991212	-733.4215698242189	-345.3104553222657	1237.830444335938	-682.9440307617189	-478.8047485351564	668.0256347656251	-923.4050903320315	
924	4.615	-226.1855926513672	1310.500610351563	-759.2686157226564	-377.5987854003907	1208.7373046875	-839.7344360351565	-419.6013793945314	1121.515869140625	-786.0228271484377	-587.3977050781251	848.9685668945315	-793.087341308594	-301.3727416992188	1018.933227539063	-773.2239379882815	-298.8319702148438	1088.74072265625	-897.2071533203127	-141.0845336914063	1040.203491210938	-976.2105102539065	-120.491683959961	1051.338623046875	-932.0467529296877	-72.71691894531251	1033.21875	-964.398864746094	5.304080486297608	1021.511901855469	-942.7048950195315	-14.25613784790039	944.2515258789065	-913.6496582031252	nan	nan	nan	241.6182250976563	1023.630859375	-836.448181152344	242.8726654052735	1032.833251953125	-735.4467773437501	-324.8298950195313	1076.695190429688	-645.2670898437501	-195.8892517089844	1025.5556640625	-532.0067749023439	-162.1930084228516	1038.6923828125	-565.3067626953126	-126.144645690918	1017.569091796875	-521.4364013671876	-54.94582748413087	1013.357482910156	-525.9043579101564	-47.12419891357423	938.4119262695315	-540.9116210937501	169.9580841064453	1019.728271484375	-687.9520263671876	185.162094116211	1044.006958007813	-617.2631835937501	244.4171142578126	1059.27734375	-714.9979858398439	-482.4790954589845	656.7100219726564	-676.4541015625001	-631.5169677734376	719.5424194335939	-803.9349365234377	-640.3735961914064	689.1080322265626	-831.7613525390627	-642.5875244140626	687.2740478515626	-776.6494140625002	-375.3163146972657	537.7896118164064	-1023.552795410156	-290.6483154296876	535.7366333007814	-1025.71923828125	-276.4794311523438	575.5634765625001	-999.6670532226565	-252.7599487304688	489.3453063964845	-1025.903930664063	-166.5549621582032	427.8021850585939	-1019.956481933594	-129.5306396484375	444.4719848632814	-898.2156982421877	-38.68347930908204	380.9017639160157	-991.6599121093752	-57.57789993286134	313.5054626464844	-1041.48681640625	-23.45414352416993	333.5835266113282	-1021.319641113281	25.89171028137208	269.6666259765626	-992.5811767578127	60.92322540283205	111.2325897216797	-1015.219177246094	72.7118606567383	142.0962677001953	-932.4238891601565	24.02813148498536	61.74570083618165	-972.4731445312502	215.1430358886719	136.3326110839844	-925.5842895507815	225.3875427246094	135.7899017333985	-973.8003540039065	205.7015686035157	93.14733123779298	-1021.2001953125	-430.0227966308595	509.5079345703126	-618.1444091796876	-365.1546936035157	522.1848144531251	-617.4686279296876	-356.4686279296876	553.9408569335939	-627.8362426757814	-303.4501953125001	465.8581848144532	-622.1701660156251	-191.1199645996094	389.8909301757814	-652.5531005859376	-164.5628356933594	418.5499877929689	-779.6177368164065	-185.4429473876953	276.2229003906251	-757.9487915039064	-266.1648559570313	218.7888183593751	-710.6434936523439	-239.676498413086	207.8843536376954	-749.1885986328126	-271.6951599121094	185.3531646728516	-792.436462402344	-390.819549560547	103.9652557373047	-770.5066528320315	-351.2648925781251	134.3215026855469	-848.0823364257815	-446.116424560547	92.05467987060548	-836.1632080078127	-242.0190734863282	56.73751449584962	-822.6541748046877	-246.8391113281251	56.16520309448244	-780.0959472656252	-289.5154724121094	33.80689239501954	-733.4249267578126	-345.5569152832032	1239.312866210938	-683.3123779296876	-478.7286376953126	668.9313964843751	-923.2390136718752	
